# xmcd CD database file
#
# Track frame offsets:
#	150
#	16750
#	38375
#	58447
#	83032
#	101882
#	118342
#	134817
#	163562
#	189400
#	209785
#	228182
#
# Disc length: 3309 seconds
#
# Revision: 2
# Processed by: cddbd v1.5.1PL2 Copyright (c) Steve Scherf et al.
# Submitted via: CDex 1.51
#
DISCID=a80ceb0c
DTITLE=Bonnie Raitt - Longing In Their Hearts
DYEAR=1994
DGENRE=Blues
TTITLE0=Love Sneakin' Up On You 
TTITLE1=Longing In Their Hearts 
TTITLE2=You 
TTITLE3=Cool, Clear Water 
TTITLE4=Circle Dance 
TTITLE5=I Sho Do 
TTITLE6=Dimming Of The Day 
TTITLE7=Feeling Of Falling 
TTITLE8=Steal Your Heart Away 
TTITLE9=Storm Warning 
TTITLE10=Hell To Pay 
TTITLE11=Shadow Of Doubt 
EXTD=YEAR: 1994
EXTT0=
EXTT1=
EXTT2=
EXTT3=
EXTT4=
EXTT5=
EXTT6=
EXTT7=
EXTT8=
EXTT9=
EXTT10=
EXTT11=
PLAYORDER=
